<svg xmlns="http://www.w3.org/2000/svg" viewBox="0 0 1200 700" role="img" aria-labelledby="title desc">
<title id="title">Printful Knowledge by HM</title>
<desc id="desc">Original geometric knowledge logo with print-on-demand shirt and book motifs.</desc>
<rect width="1200" height="700" rx="56" fill="#0F2A43"/>
<g transform="translate(90 80)">
  <path d="M20 270 L190 40 L345 245 L450 105 L620 300 Z" fill="#F05A3C"/>
  <path d="M175 265 L355 25 L520 270 Z" fill="#16B7A7"/>
  <path d="M300 250 L455 70 L610 285 Z" fill="#FFB21C"/>
  <g transform="translate(230 120)">
    <path d="M55 75 L110 30 L165 60 L220 25 L280 78 L245 120 L215 95 L215 230 Q215 250 195 250 H140 Q120 250 120 230 V95 L90 120 Z"
          fill="#FFFFFF"/>
    <path d="M-15 240 Q95 205 160 255 V355 Q70 305 -15 330 Z" fill="#16B7A7"/>
    <path d="M335 240 Q225 205 160 255 V355 Q250 305 335 330 Z" fill="#16B7A7"/>
    <path d="M160 255 V355" stroke="#FFFFFF" stroke-width="10"/>
  </g>
</g>
<text x="600" y="520" text-anchor="middle" font-family="Arial, Helvetica, sans-serif" font-size="122" font-weight="700" fill="#FFFFFF">Knowledge</text>
<text x="600" y="598" text-anchor="middle" font-family="Arial, Helvetica, sans-serif" font-size="42" font-weight="700" letter-spacing="10" fill="#A9B9C7">HM</text>
</svg>